# xmcd
#
# Track frame offsets:
#	150
#	13480
#	25579
#	40964
#	59901
#	74640
#	86917
#	102493
#	117068
#	126532
#
# Disc length: 1857 seconds
#
# Revision: 0
# Processed by: cddbd v1.5.2PL0 Copyright (c) Steve Scherf et al.
# Submitted via: EZCDAudioConverter 3.1.0.1
#
DISCID=9a073f0a
DTITLE=Josh Logan - That's How Angels Lose Their Wings
DYEAR=1986
DGENRE=Country
TTITLE0=That's How Angels Lose Their Wings
TTITLE1=I Was Your Fool  And I Loved It
TTITLE2=Back To The Wall
TTITLE3=April Showers Don't Bring May Flowers
TTITLE4=I Made You A Woman
TTITLE5=Drinking Overtime
TTITLE6=Two Hungry Arms
TTITLE7=Walk Softly On The Bridges
TTITLE8=Are You Guilty
TTITLE9=I'm Loving Again
EXTD=
EXTT0=
EXTT1=
EXTT2=
EXTT3=
EXTT4=
EXTT5=
EXTT6=
EXTT7=
EXTT8=
EXTT9=
PLAYORDER=
